<svg xmlns="http://www.w3.org/2000/svg" width="36" height="36" viewBox="0 0 36 36">
    <path data-name="사각형 96" style="fill:none" d="M0 0h36v36H0z"/>
    <g data-name="Color" style="stroke-linecap:round;fill:none">
        <path d="m91.3 34.545-2.03-1.8c-7.21-6.363-11.97-10.562-11.97-15.7a7.531 7.531 0 0 1 7.559-7.5H85a8.478 8.478 0 0 1 6.3 2.847 8.48 8.48 0 0 1 6.3-2.847 7.533 7.533 0 0 1 7.7 7.36v.14c0 5.15-4.76 9.346-11.97 15.721z" style="stroke:none" transform="translate(-72.796 -4.044)"/>
        <path d="m91.304 31.88.752-.66c3.464-3.063 6.456-5.71 8.442-8.077 1.935-2.308 2.798-4.189 2.798-6.098v-.102a5.441 5.441 0 0 0-1.66-3.82 5.556 5.556 0 0 0-4.003-1.577h-.026a6.485 6.485 0 0 0-4.814 2.174l-1.497 1.688-1.497-1.689a6.482 6.482 0 0 0-4.814-2.173h-.029l-.1-.001c-3.066 0-5.56 2.468-5.56 5.5 0 1.909.867 3.79 2.811 6.104 1.995 2.373 5 5.025 8.479 8.095l.718.636m-.008 2.665-2.03-1.798c-7.21-6.363-11.97-10.563-11.97-15.702 0-4.141 3.383-7.5 7.56-7.5h.14a8.478 8.478 0 0 1 6.3 2.848 8.48 8.48 0 0 1 6.3-2.847c4.175-.077 7.622 3.218 7.7 7.36v.14c0 5.15-4.76 9.345-11.97 15.72l-2.03 1.779z" style="fill:#ccc;stroke:none" transform="translate(-72.796 -4.044)"/>
    </g>
</svg>
